<svg xmlns="http://www.w3.org/2000/svg" width="385" height="385" viewBox="338 347 385 385" role="img" aria-labelledby="title desc">
<title id="title">Logo Liege Milhioli</title>
<desc id="desc">Logo vetorial branca com circulo e forma de onda, fundo transparente.</desc>
<g style="stroke:#fff;stroke-width:4;stroke-linecap:butt;fill:none;vector-effect:non-scaling-stroke">
  <circle cx="530.5" cy="539.5" r="179.0" />
  <line x1="401.5" y1="528.0" x2="401.5" y2="551.0" />
  <line x1="408.5" y1="513.0" x2="408.5" y2="567.0" />
  <line x1="415.5" y1="498.0" x2="415.5" y2="582.0" />
  <line x1="422.5" y1="491.0" x2="422.5" y2="588.0" />
  <line x1="430.0" y1="468.0" x2="430.0" y2="611.0" />
  <line x1="437.5" y1="513.0" x2="437.5" y2="566.0" />
  <line x1="444.5" y1="461.0" x2="444.5" y2="618.0" />
  <line x1="451.5" y1="491.0" x2="451.5" y2="589.0" />
  <line x1="458.5" y1="513.0" x2="458.5" y2="566.0" />
  <line x1="466.0" y1="477.0" x2="466.0" y2="602.0" />
  <line x1="473.0" y1="491.0" x2="473.0" y2="588.0" />
  <line x1="480.5" y1="499.0" x2="480.5" y2="581.0" />
  <line x1="487.5" y1="514.0" x2="487.5" y2="566.0" />
  <line x1="494.5" y1="528.0" x2="494.5" y2="551.0" />
  <line x1="501.5" y1="532.0" x2="501.5" y2="547.0" />
  <line x1="509.0" y1="533.0" x2="509.0" y2="547.0" />
  <line x1="516.5" y1="536.0" x2="516.5" y2="544.0" />
  <line x1="523.0" y1="535.0" x2="523.0" y2="544.0" />
  <line x1="530.5" y1="528.0" x2="530.5" y2="551.0" />
  <line x1="537.5" y1="513.0" x2="537.5" y2="566.0" />
  <line x1="544.5" y1="498.0" x2="544.5" y2="581.0" />
  <line x1="552.0" y1="448.0" x2="552.0" y2="632.0" />
  <line x1="559.5" y1="455.0" x2="559.5" y2="624.0" />
  <line x1="566.5" y1="477.0" x2="566.5" y2="602.0" />
  <line x1="573.5" y1="463.0" x2="573.5" y2="617.0" />
  <line x1="580.5" y1="494.0" x2="580.5" y2="586.0" />
  <line x1="588.0" y1="468.0" x2="588.0" y2="612.0" />
  <line x1="595.0" y1="479.0" x2="595.0" y2="600.0" />
  <line x1="602.5" y1="493.0" x2="602.5" y2="587.0" />
  <line x1="609.5" y1="496.0" x2="609.5" y2="583.0" />
  <line x1="616.5" y1="513.0" x2="616.5" y2="567.0" />
  <line x1="623.5" y1="491.0" x2="623.5" y2="589.0" />
  <line x1="631.0" y1="505.0" x2="631.0" y2="574.0" />
  <line x1="638.5" y1="513.0" x2="638.5" y2="566.0" />
  <line x1="645.0" y1="519.0" x2="645.0" y2="561.0" />
  <line x1="652.5" y1="533.0" x2="652.5" y2="547.0" />
  <line x1="660.0" y1="533.0" x2="660.0" y2="547.0" />
</g>
</svg>
